<svg xmlns="http://www.w3.org/2000/svg" viewBox="0 0 640 400" role="img" aria-label="Demo import preview">
  <defs>
    <linearGradient id="a" x1="0" y1="0" x2="1" y2="1"><stop offset="0" stop-color="#2563eb"/><stop offset="1" stop-color="#0ea5e9"/></linearGradient>
  </defs>
  <rect width="640" height="400" rx="20" fill="#f1f5f9"/>
  <rect x="120" y="70" width="400" height="260" rx="18" fill="#ffffff" stroke="#e2e8f0"/>
  <!-- cloud download -->
  <g transform="translate(320,140)">
    <circle r="46" fill="url(#a)" opacity="0.14"/>
    <path d="M-30 6 a18 18 0 0 1 4 -35 a24 24 0 0 1 46 6 a16 16 0 0 1 -2 31 z" fill="url(#a)" opacity="0.9"/>
    <path d="M0 -6 v26 M-12 8 l12 12 l12 -12" fill="none" stroke="#ffffff" stroke-width="4" stroke-linecap="round" stroke-linejoin="round"/>
  </g>
  <rect x="170" y="214" width="300" height="14" rx="7" fill="#0b1220"/>
  <rect x="210" y="240" width="220" height="10" rx="5" fill="#cbd5e1"/>
  <!-- progress -->
  <rect x="170" y="276" width="300" height="12" rx="6" fill="#eef2f8"/>
  <rect x="170" y="276" width="210" height="12" rx="6" fill="url(#a)"/>
  <circle cx="470" cy="84" r="18" fill="#16a34a"/>
  <path d="M462 84 l5 6 l11 -13" fill="none" stroke="#ffffff" stroke-width="4" stroke-linecap="round" stroke-linejoin="round"/>
</svg>
