<svg xmlns="http://www.w3.org/2000/svg" viewBox="0 0 640 400" role="img" aria-label="SEO preview">
  <defs>
    <linearGradient id="a" x1="0" y1="0" x2="1" y2="1"><stop offset="0" stop-color="#2563eb"/><stop offset="1" stop-color="#0ea5e9"/></linearGradient>
  </defs>
  <rect width="640" height="400" rx="20" fill="#f1f5f9"/>
  <!-- search result card -->
  <rect x="40" y="48" width="560" height="150" rx="16" fill="#ffffff" stroke="#e2e8f0"/>
  <circle cx="74" cy="84" r="12" fill="#eef2f8"/>
  <rect x="96" y="72" width="120" height="9" rx="4" fill="#16a34a"/>
  <rect x="96" y="88" width="90" height="8" rx="4" fill="#94a3b8"/>
  <rect x="64" y="118" width="360" height="16" rx="8" fill="#2563eb"/>
  <rect x="64" y="150" width="500" height="10" rx="5" fill="#cbd5e1"/>
  <rect x="64" y="170" width="430" height="10" rx="5" fill="#e2e8f0"/>
  <!-- meta tag chips -->
  <g font-family="system-ui, sans-serif" font-size="15" font-weight="600">
    <rect x="40" y="226" width="150" height="44" rx="12" fill="#ffffff" stroke="#e2e8f0"/>
    <rect x="58" y="242" width="14" height="14" rx="3" fill="url(#a)"/>
    <text x="82" y="253" fill="#334155">title</text>
    <rect x="206" y="226" width="170" height="44" rx="12" fill="#ffffff" stroke="#e2e8f0"/>
    <rect x="224" y="242" width="14" height="14" rx="3" fill="url(#a)"/>
    <text x="248" y="253" fill="#334155">og:image</text>
    <rect x="392" y="226" width="208" height="44" rx="12" fill="#ffffff" stroke="#e2e8f0"/>
    <rect x="410" y="242" width="14" height="14" rx="3" fill="url(#a)"/>
    <text x="434" y="253" fill="#334155">canonical</text>
  </g>
  <!-- sitemap bar -->
  <rect x="40" y="296" width="560" height="56" rx="14" fill="url(#a)" opacity="0.12"/>
  <rect x="62" y="316" width="120" height="14" rx="7" fill="#2563eb"/>
  <rect x="200" y="318" width="220" height="10" rx="5" fill="#94a3b8"/>
  <circle cx="566" cy="324" r="14" fill="#16a34a"/>
  <path d="M560 324 l4 5 l9 -10" fill="none" stroke="#ffffff" stroke-width="3" stroke-linecap="round" stroke-linejoin="round"/>
</svg>
